<svg id="Layer_1" data-name="Layer 1" xmlns="http://www.w3.org/2000/svg" viewBox="0 0 512 512"><title>linkedin-flat</title><path d="M0,256C0,114.62,114.62,0,256,0S512,114.63,512,256,397.37,512,256,512,0,397.38,0,256Z" fill="#0086cd"/><path d="M167.68,225.38h37.89V347.12H167.68Zm19-60.5a21.94,21.94,0,1,1-22,21.95,22,22,0,0,1,22-21.95" fill="#fff"/><path d="M229.32,225.38h36.29V242h.5c5-9.58,17.4-19.69,35.82-19.69,38.32,0,45.38,25.22,45.38,58v66.77H309.51V287.93c0-14.12-.29-32.28-19.67-32.28-19.7,0-22.7,15.36-22.7,31.25v60.21H229.32Z" fill="#fff"/></svg>